<mxfile host="app.diagrams.net" modified="2023-09-26T15:23:30.450Z" agent="Mozilla/5.0 (Macintosh; Intel Mac OS X 10_15_7) AppleWebKit/605.1.15 (KHTML, like Gecko) Version/16.6 Safari/605.1.15" version="21.8.2" etag="ncxP9apb_mNFuSXZMESb" type="github">
  <diagram name="Страница — 1" id="Mq8GfilcaXEJIos37CIm">
    <mxGraphModel>
      <root>
        <mxCell id="0" />
        <mxCell id="1" parent="0" />
      </root>
    </mxGraphModel>
  </diagram>
</mxfile>
